<svg width="1600" height="1000" viewBox="0 0 1600 1000" fill="none" xmlns="http://www.w3.org/2000/svg">
  <rect width="1600" height="1000" rx="40" fill="url(#bg)"/>
  <circle cx="1326" cy="168" r="194" fill="#22C55E" fill-opacity="0.16"/>
  <circle cx="214" cy="786" r="250" fill="#38BDF8" fill-opacity="0.14"/>
  <rect x="88" y="92" width="1424" height="816" rx="38" fill="#0F172A" fill-opacity="0.9"/>
  <rect x="128" y="136" width="1344" height="94" rx="24" fill="#111827"/>
  <rect x="166" y="170" width="246" height="22" rx="11" fill="#F8FAFC" fill-opacity="0.94"/>
  <rect x="128" y="266" width="1344" height="594" rx="30" fill="#111827"/>
  <rect x="168" y="306" width="430" height="514" rx="28" fill="#F8FAFC"/>
  <rect x="204" y="342" width="358" height="140" rx="24" fill="#DCFCE7"/>
  <rect x="204" y="514" width="190" height="18" rx="9" fill="#0F172A" fill-opacity="0.84"/>
  <rect x="204" y="548" width="318" height="16" rx="8" fill="#CBD5E1"/>
  <rect x="204" y="582" width="290" height="16" rx="8" fill="#CBD5E1"/>
  <rect x="204" y="638" width="326" height="130" rx="24" fill="#ECFEFF"/>
  <rect x="640" y="306" width="792" height="240" rx="28" fill="#F8FAFC"/>
  <rect x="676" y="344" width="314" height="18" rx="9" fill="#0F172A" fill-opacity="0.84"/>
  <rect x="676" y="392" width="720" height="16" rx="8" fill="#CBD5E1"/>
  <rect x="676" y="424" width="680" height="16" rx="8" fill="#CBD5E1"/>
  <rect x="676" y="458" width="616" height="16" rx="8" fill="#CBD5E1"/>
  <rect x="640" y="580" width="378" height="240" rx="28" fill="#F8FAFC"/>
  <rect x="674" y="616" width="168" height="18" rx="9" fill="#0F172A" fill-opacity="0.84"/>
  <rect x="674" y="662" width="310" height="124" rx="24" fill="#DBEAFE"/>
  <rect x="1054" y="580" width="378" height="240" rx="28" fill="#F8FAFC"/>
  <rect x="1088" y="616" width="168" height="18" rx="9" fill="#0F172A" fill-opacity="0.84"/>
  <rect x="1088" y="662" width="310" height="124" rx="24" fill="#FEF3C7"/>
  <defs>
    <linearGradient id="bg" x1="68" y1="52" x2="1508" y2="952" gradientUnits="userSpaceOnUse">
      <stop stop-color="#F8FAFC"/>
      <stop offset="0.5" stop-color="#ECFEFF"/>
      <stop offset="1" stop-color="#DCFCE7"/>
    </linearGradient>
  </defs>
</svg>