<svg width="1600" height="1000" viewBox="0 0 1600 1000" fill="none" xmlns="http://www.w3.org/2000/svg">
  <rect width="1600" height="1000" rx="40" fill="url(#bg)"/>
  <circle cx="1340" cy="154" r="180" fill="#F59E0B" fill-opacity="0.2"/>
  <circle cx="200" cy="792" r="250" fill="#FB7185" fill-opacity="0.14"/>
  <rect x="88" y="92" width="1424" height="816" rx="38" fill="#0F172A" fill-opacity="0.9"/>
  <rect x="128" y="134" width="1344" height="98" rx="24" fill="#111827"/>
  <rect x="166" y="170" width="260" height="22" rx="11" fill="#F8FAFC" fill-opacity="0.94"/>
  <rect x="1174" y="162" width="116" height="34" rx="17" fill="#1E293B"/>
  <rect x="1308" y="162" width="126" height="34" rx="17" fill="#F59E0B"/>
  <rect x="128" y="266" width="586" height="596" rx="30" fill="#111827"/>
  <rect x="168" y="306" width="506" height="516" rx="28" fill="#F8FAFC"/>
  <rect x="210" y="350" width="422" height="194" rx="28" fill="#FEF3C7"/>
  <rect x="256" y="390" width="330" height="118" rx="22" fill="#FCD34D" fill-opacity="0.66"/>
  <circle cx="338" cy="586" r="26" fill="#0F172A"/>
  <circle cx="520" cy="586" r="26" fill="#0F172A"/>
  <rect x="218" y="642" width="180" height="18" rx="9" fill="#0F172A" fill-opacity="0.84"/>
  <rect x="218" y="676" width="138" height="14" rx="7" fill="#64748B"/>
  <rect x="422" y="634" width="170" height="42" rx="21" fill="#F59E0B"/>
  <rect x="752" y="266" width="720" height="596" rx="30" fill="#111827"/>
  <rect x="792" y="306" width="306" height="210" rx="28" fill="#F8FAFC"/>
  <rect x="818" y="334" width="254" height="120" rx="24" fill="#FCE7F3"/>
  <rect x="818" y="476" width="146" height="16" rx="8" fill="#0F172A" fill-opacity="0.84"/>
  <rect x="818" y="504" width="104" height="12" rx="6" fill="#64748B"/>
  <rect x="1130" y="306" width="302" height="210" rx="28" fill="#F8FAFC"/>
  <rect x="1156" y="334" width="250" height="120" rx="24" fill="#DCFCE7"/>
  <rect x="1156" y="476" width="152" height="16" rx="8" fill="#0F172A" fill-opacity="0.84"/>
  <rect x="1156" y="504" width="98" height="12" rx="6" fill="#64748B"/>
  <rect x="792" y="554" width="640" height="268" rx="28" fill="#F8FAFC"/>
  <rect x="830" y="592" width="206" height="18" rx="9" fill="#0F172A" fill-opacity="0.84"/>
  <rect x="830" y="632" width="562" height="16" rx="8" fill="#CBD5E1"/>
  <rect x="830" y="664" width="514" height="16" rx="8" fill="#CBD5E1"/>
  <rect x="830" y="706" width="248" height="84" rx="24" fill="#FFF7ED"/>
  <rect x="1104" y="706" width="288" height="84" rx="24" fill="#ECFDF5"/>
  <defs>
    <linearGradient id="bg" x1="86" y1="62" x2="1508" y2="948" gradientUnits="userSpaceOnUse">
      <stop stop-color="#FEF3C7"/>
      <stop offset="0.48" stop-color="#FFF7ED"/>
      <stop offset="1" stop-color="#FCE7F3"/>
    </linearGradient>
  </defs>
</svg>