<svg width="1600" height="1000" viewBox="0 0 1600 1000" fill="none" xmlns="http://www.w3.org/2000/svg">
  <rect width="1600" height="1000" rx="40" fill="url(#bg)"/>
  <circle cx="1360" cy="180" r="220" fill="#14B8A6" fill-opacity="0.18"/>
  <circle cx="260" cy="820" r="260" fill="#F59E0B" fill-opacity="0.18"/>
  <rect x="96" y="88" width="1408" height="824" rx="36" fill="#0F172A" fill-opacity="0.88"/>
  <rect x="136" y="132" width="1328" height="72" rx="22" fill="#111827"/>
  <rect x="170" y="158" width="200" height="20" rx="10" fill="#F8FAFC" fill-opacity="0.92"/>
  <rect x="1050" y="154" width="120" height="28" rx="14" fill="#1E293B"/>
  <rect x="1188" y="154" width="120" height="28" rx="14" fill="#1E293B"/>
  <rect x="1326" y="154" width="98" height="28" rx="14" fill="#14B8A6"/>
  <rect x="136" y="236" width="320" height="620" rx="28" fill="#111827"/>
  <rect x="170" y="274" width="252" height="22" rx="11" fill="#E2E8F0" fill-opacity="0.92"/>
  <rect x="170" y="324" width="214" height="16" rx="8" fill="#64748B" fill-opacity="0.78"/>
  <rect x="170" y="388" width="252" height="94" rx="24" fill="#1E293B"/>
  <rect x="170" y="512" width="252" height="94" rx="24" fill="#1E293B"/>
  <rect x="170" y="636" width="252" height="94" rx="24" fill="#1E293B"/>
  <rect x="496" y="236" width="968" height="620" rx="28" fill="#111827"/>
  <rect x="536" y="274" width="260" height="24" rx="12" fill="#F8FAFC" fill-opacity="0.94"/>
  <rect x="1210" y="270" width="214" height="34" rx="17" fill="#14B8A6"/>
  <rect x="536" y="338" width="284" height="214" rx="28" fill="#F8FAFC"/>
  <rect x="552" y="354" width="252" height="110" rx="20" fill="#CFFAFE"/>
  <rect x="552" y="486" width="166" height="14" rx="7" fill="#0F172A" fill-opacity="0.82"/>
  <rect x="552" y="512" width="126" height="12" rx="6" fill="#64748B" fill-opacity="0.78"/>
  <rect x="742" y="486" width="62" height="28" rx="14" fill="#0F172A"/>
  <rect x="840" y="338" width="284" height="214" rx="28" fill="#F8FAFC"/>
  <rect x="856" y="354" width="252" height="110" rx="20" fill="#FEF3C7"/>
  <rect x="856" y="486" width="182" height="14" rx="7" fill="#0F172A" fill-opacity="0.82"/>
  <rect x="856" y="512" width="104" height="12" rx="6" fill="#64748B" fill-opacity="0.78"/>
  <rect x="1046" y="486" width="62" height="28" rx="14" fill="#0F172A"/>
  <rect x="1144" y="338" width="284" height="214" rx="28" fill="#F8FAFC"/>
  <rect x="1160" y="354" width="252" height="110" rx="20" fill="#DCFCE7"/>
  <rect x="1160" y="486" width="170" height="14" rx="7" fill="#0F172A" fill-opacity="0.82"/>
  <rect x="1160" y="512" width="112" height="12" rx="6" fill="#64748B" fill-opacity="0.78"/>
  <rect x="1350" y="486" width="62" height="28" rx="14" fill="#0F172A"/>
  <rect x="536" y="592" width="892" height="224" rx="28" fill="#F8FAFC"/>
  <rect x="566" y="624" width="240" height="16" rx="8" fill="#0F172A" fill-opacity="0.82"/>
  <rect x="566" y="656" width="822" height="14" rx="7" fill="#CBD5E1"/>
  <rect x="566" y="688" width="768" height="14" rx="7" fill="#CBD5E1"/>
  <rect x="566" y="736" width="134" height="42" rx="21" fill="#14B8A6"/>
  <defs>
    <linearGradient id="bg" x1="74" y1="58" x2="1480" y2="946" gradientUnits="userSpaceOnUse">
      <stop stop-color="#E2E8F0"/>
      <stop offset="0.52" stop-color="#F8FAFC"/>
      <stop offset="1" stop-color="#DBEAFE"/>
    </linearGradient>
  </defs>
</svg>