<svg width="1600" height="1000" viewBox="0 0 1600 1000" fill="none" xmlns="http://www.w3.org/2000/svg">
  <rect width="1600" height="1000" rx="40" fill="url(#bg)"/>
  <circle cx="1410" cy="780" r="220" fill="#14B8A6" fill-opacity="0.18"/>
  <circle cx="220" cy="170" r="170" fill="#A78BFA" fill-opacity="0.12"/>
  <rect x="86" y="94" width="1428" height="812" rx="38" fill="#0F172A" fill-opacity="0.9"/>
  <rect x="126" y="136" width="364" height="728" rx="30" fill="#111827"/>
  <rect x="160" y="176" width="190" height="22" rx="11" fill="#F8FAFC" fill-opacity="0.94"/>
  <rect x="160" y="238" width="296" height="116" rx="24" fill="#14B8A6" fill-opacity="0.22"/>
  <rect x="184" y="270" width="102" height="102" rx="32" fill="#CCFBF1"/>
  <rect x="306" y="282" width="118" height="16" rx="8" fill="#F8FAFC" fill-opacity="0.92"/>
  <rect x="306" y="314" width="92" height="12" rx="6" fill="#94A3B8"/>
  <rect x="306" y="340" width="96" height="12" rx="6" fill="#94A3B8"/>
  <rect x="160" y="386" width="296" height="116" rx="24" fill="#1E293B"/>
  <rect x="160" y="534" width="296" height="116" rx="24" fill="#1E293B"/>
  <rect x="160" y="682" width="296" height="116" rx="24" fill="#1E293B"/>
  <rect x="522" y="136" width="952" height="728" rx="30" fill="#111827"/>
  <rect x="560" y="176" width="876" height="94" rx="24" fill="#F8FAFC"/>
  <rect x="590" y="206" width="74" height="34" rx="17" fill="#14B8A6" fill-opacity="0.2"/>
  <rect x="688" y="206" width="212" height="18" rx="9" fill="#0F172A" fill-opacity="0.84"/>
  <rect x="688" y="236" width="130" height="12" rx="6" fill="#64748B"/>
  <rect x="560" y="304" width="876" height="470" rx="28" fill="#F8FAFC"/>
  <rect x="596" y="346" width="338" height="74" rx="26" fill="#E2E8F0"/>
  <rect x="1060" y="446" width="338" height="74" rx="26" fill="#CCFBF1"/>
  <rect x="596" y="546" width="390" height="74" rx="26" fill="#E2E8F0"/>
  <rect x="1010" y="646" width="388" height="74" rx="26" fill="#CCFBF1"/>
  <rect x="560" y="794" width="876" height="44" rx="22" fill="#0F172A" fill-opacity="0.06"/>
  <rect x="594" y="807" width="642" height="18" rx="9" fill="#94A3B8" fill-opacity="0.5"/>
  <rect x="1260" y="802" width="142" height="28" rx="14" fill="#14B8A6"/>
  <defs>
    <linearGradient id="bg" x1="140" y1="86" x2="1482" y2="936" gradientUnits="userSpaceOnUse">
      <stop stop-color="#F8FAFC"/>
      <stop offset="0.48" stop-color="#EFF6FF"/>
      <stop offset="1" stop-color="#E2E8F0"/>
    </linearGradient>
  </defs>
</svg>